<?xml version="1.0" encoding="UTF-8"?>
<svg xmlns="http://www.w3.org/2000/svg" xmlns:xlink="http://www.w3.org/1999/xlink" width="600pt" height="600pt" viewBox="0 0 600 600" version="1.1">
<g id="surface307">
<rect x="0" y="0" width="600" height="600" style="fill:rgb(100%,100%,100%);fill-opacity:1;stroke:none;"/>
<path style="fill:none;stroke-width:1;stroke-linecap:butt;stroke-linejoin:miter;stroke:rgb(26.666667%,26.666667%,26.666667%);stroke-opacity:1;stroke-miterlimit:10;" d="M 210 213.847656 L 220.03125 20 "/>
<path style="fill:none;stroke-width:1;stroke-linecap:butt;stroke-linejoin:miter;stroke:rgb(26.666667%,26.666667%,26.666667%);stroke-opacity:1;stroke-miterlimit:10;" d="M 210 213.847656 L 350.421875 379.632813 "/>
<path style="fill:none;stroke-width:1;stroke-linecap:butt;stroke-linejoin:miter;stroke:rgb(26.666667%,26.666667%,26.666667%);stroke-opacity:1;stroke-miterlimit:10;" d="M 350.421875 379.632813 L 329.144531 580 "/>
<path style="fill:none;stroke-width:1;stroke-linecap:butt;stroke-linejoin:miter;stroke:rgb(26.666667%,26.666667%,26.666667%);stroke-opacity:1;stroke-miterlimit:10;" d="M 329.144531 580 L 580 495.257813 "/>
<path style="fill:none;stroke-width:1;stroke-linecap:butt;stroke-linejoin:miter;stroke:rgb(26.666667%,26.666667%,26.666667%);stroke-opacity:1;stroke-miterlimit:10;" d="M 350.421875 379.632813 L 580 495.257813 "/>
<path style="fill:none;stroke-width:1;stroke-linecap:butt;stroke-linejoin:miter;stroke:rgb(26.666667%,26.666667%,26.666667%);stroke-opacity:1;stroke-miterlimit:10;" d="M 350.421875 379.632813 L 41.527344 366.304688 "/>
<path style="fill:none;stroke-width:1;stroke-linecap:butt;stroke-linejoin:miter;stroke:rgb(26.666667%,26.666667%,26.666667%);stroke-opacity:1;stroke-miterlimit:10;" d="M 210 213.847656 L 41.527344 366.304688 "/>
<path style="fill:none;stroke-width:1;stroke-linecap:butt;stroke-linejoin:miter;stroke:rgb(26.666667%,26.666667%,26.666667%);stroke-opacity:1;stroke-miterlimit:10;" d="M 329.144531 580 L 20 565.710938 "/>
<path style="fill:none;stroke-width:1;stroke-linecap:butt;stroke-linejoin:miter;stroke:rgb(26.666667%,26.666667%,26.666667%);stroke-opacity:1;stroke-miterlimit:10;" d="M 41.527344 366.304688 L 20 565.710938 "/>
<path style="fill-rule:nonzero;fill:rgb(100%,0%,0%);fill-opacity:1;stroke-width:1;stroke-linecap:butt;stroke-linejoin:miter;stroke:rgb(0%,0%,0%);stroke-opacity:1;stroke-miterlimit:10;" d="M 220 213.847656 C 220 219.371094 215.523438 223.847656 210 223.847656 C 204.476563 223.847656 200 219.371094 200 213.847656 C 200 208.324219 204.476563 203.847656 210 203.847656 C 215.523438 203.847656 220 208.324219 220 213.847656 "/>
<path style="fill-rule:nonzero;fill:rgb(100%,0%,0%);fill-opacity:1;stroke-width:1;stroke-linecap:butt;stroke-linejoin:miter;stroke:rgb(0%,0%,0%);stroke-opacity:1;stroke-miterlimit:10;" d="M 230.03125 20 C 230.03125 25.523438 225.554688 30 220.03125 30 C 214.511719 30 210.03125 25.523438 210.03125 20 C 210.03125 14.476563 214.511719 10 220.03125 10 C 225.554688 10 230.03125 14.476563 230.03125 20 "/>
<path style="fill-rule:nonzero;fill:rgb(100%,0%,0%);fill-opacity:1;stroke-width:1;stroke-linecap:butt;stroke-linejoin:miter;stroke:rgb(0%,0%,0%);stroke-opacity:1;stroke-miterlimit:10;" d="M 360.421875 379.632813 C 360.421875 385.15625 355.941406 389.632813 350.421875 389.632813 C 344.898438 389.632813 340.421875 385.15625 340.421875 379.632813 C 340.421875 374.109375 344.898438 369.632813 350.421875 369.632813 C 355.941406 369.632813 360.421875 374.109375 360.421875 379.632813 "/>
<path style="fill-rule:nonzero;fill:rgb(100%,0%,0%);fill-opacity:1;stroke-width:1;stroke-linecap:butt;stroke-linejoin:miter;stroke:rgb(0%,0%,0%);stroke-opacity:1;stroke-miterlimit:10;" d="M 339.144531 580 C 339.144531 585.523438 334.667969 590 329.144531 590 C 323.621094 590 319.144531 585.523438 319.144531 580 C 319.144531 574.476563 323.621094 570 329.144531 570 C 334.667969 570 339.144531 574.476563 339.144531 580 "/>
<path style="fill-rule:nonzero;fill:rgb(100%,0%,0%);fill-opacity:1;stroke-width:1;stroke-linecap:butt;stroke-linejoin:miter;stroke:rgb(0%,0%,0%);stroke-opacity:1;stroke-miterlimit:10;" d="M 590 495.257813 C 590 500.78125 585.523438 505.257813 580 505.257813 C 574.476563 505.257813 570 500.78125 570 495.257813 C 570 489.738281 574.476563 485.257813 580 485.257813 C 585.523438 485.257813 590 489.738281 590 495.257813 "/>
<path style="fill-rule:nonzero;fill:rgb(100%,0%,0%);fill-opacity:1;stroke-width:1;stroke-linecap:butt;stroke-linejoin:miter;stroke:rgb(0%,0%,0%);stroke-opacity:1;stroke-miterlimit:10;" d="M 51.527344 366.304688 C 51.527344 371.828125 47.050781 376.304688 41.527344 376.304688 C 36.003906 376.304688 31.527344 371.828125 31.527344 366.304688 C 31.527344 360.78125 36.003906 356.304688 41.527344 356.304688 C 47.050781 356.304688 51.527344 360.78125 51.527344 366.304688 "/>
<path style="fill-rule:nonzero;fill:rgb(100%,0%,0%);fill-opacity:1;stroke-width:1;stroke-linecap:butt;stroke-linejoin:miter;stroke:rgb(0%,0%,0%);stroke-opacity:1;stroke-miterlimit:10;" d="M 30 565.710938 C 30 571.234375 25.523438 575.710938 20 575.710938 C 14.476563 575.710938 10 571.234375 10 565.710938 C 10 560.1875 14.476563 555.710938 20 555.710938 C 25.523438 555.710938 30 560.1875 30 565.710938 "/>
</g>
</svg>
